<svg xmlns="http://www.w3.org/2000/svg" xmlns:xlink="http://www.w3.org/1999/xlink" version="1.1" x="0px" y="0px" viewBox="0 0 100 100" style="enable-background:new 0 0 100 100;" xml:space="preserve"><g><path d="M16.3,49.6h-11C4,49.6,3,50.7,3,52c0,1.3,1,2.3,2.3,2.3h11c1.3,0,2.3-1,2.3-2.3C18.7,50.7,17.6,49.6,16.3,49.6z"></path><path d="M94.7,49.6h-11c-1.3,0-2.3,1-2.3,2.3c0,1.3,1,2.3,2.3,2.3h11c1.3,0,2.3-1,2.3-2.3C97,50.7,96,49.6,94.7,49.6z"></path><path d="M83.3,18.7c-0.9-0.9-2.4-0.9-3.3,0l-7.8,7.8c-0.9,0.9-0.9,2.4,0,3.3c0.5,0.5,1.1,0.7,1.7,0.7s1.2-0.2,1.7-0.7l7.8-7.8   C84.2,21.1,84.2,19.6,83.3,18.7z"></path><path d="M27.8,29.8c0.9-0.9,0.9-2.4,0-3.3L20,18.7c-0.9-0.9-2.4-0.9-3.3,0c-0.9,0.9-0.9,2.4,0,3.3l7.8,7.8c0.5,0.5,1.1,0.7,1.7,0.7   S27.4,30.3,27.8,29.8z"></path><path d="M47.7,7.3v11c0,1.3,1,2.3,2.3,2.3c1.3,0,2.3-1,2.3-2.3v-11c0-1.3-1-2.3-2.3-2.3C48.7,4.9,47.7,6,47.7,7.3z"></path><path d="M66.5,32.8c-5.3-4.7-12.3-6.9-19.4-6c-12.5,1.5-21.8,12.1-21.7,24.7c0.1,7.2,3.6,12.2,7,17c1.1,1.5,2.2,3.1,3.2,4.8   c0,0.1,0.2,0.5,0.3,1.8c0,0.5,0.1,1,0.1,1.5c0,0.5,0.1,1.1,0.1,1.6c0.1,1.2,0.2,3.4,0.3,5.4c0.1,1.7,0.2,3.2,0.2,4.1   c0.2,2.8,2.6,5,5.4,5h0.4c1,1.6,2.7,2.6,4.6,2.6h5.6c1.9,0,3.7-1,4.6-2.6H58c2.8,0,5.2-2.2,5.4-5c0.1-0.8,0.1-2.4,0.2-4   c0.1-2,0.2-4.2,0.3-5.4c0-0.5,0.1-1.1,0.1-1.6c0-0.5,0.1-1,0.1-1.5c0.1-1.3,0.3-1.7,0.3-1.8c1-1.7,2.2-3.3,3.2-4.8   c3.5-4.8,7-9.9,7-17.2C74.8,44.2,71.8,37.5,66.5,32.8z M58.8,87.1c0,0.4-0.4,0.7-0.8,0.7h-1.4c-0.8,0-1.5,0.3-2,0.8h-8.8   c-0.6-0.5-1.3-0.8-2-0.8h-1.4c-0.4,0-0.7-0.3-0.8-0.7c0-0.4-0.1-1-0.1-1.7h17.5C58.8,86.1,58.8,86.7,58.8,87.1z M59,83.2   c0,0.2,0,0.4,0,0.6H41.3c0-0.2,0-0.4,0-0.6c0-0.9-0.1-1.9-0.1-2.7h18C59.1,81.3,59,82.3,59,83.2z M59.4,76.1c0,0.5-0.1,1-0.1,1.5   c0,0.4-0.1,0.8-0.1,1.3H41c0-0.5-0.1-0.9-0.1-1.3c0-0.5-0.1-1-0.1-1.5c0-0.2,0-0.4,0-0.6h18.7C59.5,75.7,59.4,75.9,59.4,76.1z    M64,65.7c-1.1,1.6-2.3,3.3-3.4,5.1c-0.6,0.9-0.8,2.1-0.9,3.2h-8.7V63.7h6.2c0.4,0,0.8-0.3,0.8-0.8c0-0.4-0.3-0.8-0.8-0.8h-14   c-0.4,0-0.8,0.3-0.8,0.8c0,0.4,0.3,0.8,0.8,0.8h6.2V74h-8.8c-0.1-1.2-0.4-2.3-0.9-3.2c-1.1-1.8-2.3-3.5-3.4-5.1   c-3.3-4.6-6.1-8.6-6.2-14.3c-0.1-10,7.6-18.8,17.6-20c0.8-0.1,1.7-0.1,2.5-0.1c4.9,0,9.5,1.8,13.3,5c4.3,3.8,6.7,9.2,6.7,15   C70.1,57.1,67.3,61.1,64,65.7z"></path><path d="M57.1,55.9h-14c-0.4,0-0.8,0.3-0.8,0.8c0,0.4,0.3,0.8,0.8,0.8h14c0.4,0,0.8-0.3,0.8-0.8C57.9,56.3,57.6,55.9,57.1,55.9z"></path></g></svg>