<svg xmlns="http://www.w3.org/2000/svg" xmlns:xlink="http://www.w3.org/1999/xlink" version="1.1" x="0px" y="0px" viewBox="0 0 100 100" enable-background="new 0 0 100 100" xml:space="preserve"><path d="M76.5,13h-53c-2.2,0-4,1.8-4,4v66c0,2.2,1.8,4,4,4h35.998c2.2,0,5.311-1.233,6.912-2.741l11.176-10.518  c1.602-1.508,2.912-4.541,2.912-6.741L80.5,17C80.5,14.8,78.7,13,76.5,13z M24.5,18h51l-0.002,48.5h-11c-3.033,0-5.5,2.467-5.5,5.5  v4.246l-1.04-1.04c-0.293-0.293-0.768-0.293-1.061,0s-0.293,0.768,0,1.061l2.101,2.101V82h-1.188l-3.024-3.024  c-0.293-0.293-0.768-0.293-1.061,0s-0.293,0.768,0,1.061L55.689,82H24.5V18z M62.984,80.617c-0.222,0.208-0.58,0.427-0.986,0.63V72  c0-1.378,1.121-2.5,2.5-2.5h10.119c-0.152,0.25-0.31,0.46-0.459,0.6L62.984,80.617z"></path><path d="M48.498,35.5h16c0.828,0,1.5-0.671,1.5-1.5s-0.672-1.5-1.5-1.5h-16c-0.828,0-1.5,0.671-1.5,1.5S47.67,35.5,48.498,35.5z"></path><path d="M42.786,26.856c-1.185-0.711-2.72-0.327-3.43,0.857l-4.353,7.254l-1.736-1.736c-0.976-0.977-2.56-0.977-3.535,0  c-0.977,0.976-0.977,2.559,0,3.535l4,4c0.472,0.472,1.108,0.732,1.768,0.732c0.102,0,0.203-0.006,0.306-0.019  c0.764-0.094,1.442-0.535,1.838-1.195l6-10C44.354,29.102,43.971,27.566,42.786,26.856z"></path><path d="M65.998,50c0-0.829-0.672-1.5-1.5-1.5h-16c-0.828,0-1.5,0.671-1.5,1.5s0.672,1.5,1.5,1.5h16  C65.326,51.5,65.998,50.829,65.998,50z"></path><path d="M42.786,42.856c-1.185-0.71-2.72-0.327-3.43,0.857l-4.353,7.254l-1.736-1.736c-0.976-0.977-2.56-0.977-3.535,0  c-0.977,0.976-0.977,2.559,0,3.535l4,4c0.472,0.472,1.108,0.732,1.768,0.732c0.102,0,0.203-0.006,0.306-0.019  c0.764-0.094,1.442-0.535,1.838-1.195l6-10C44.354,45.102,43.971,43.566,42.786,42.856z"></path></svg>