<svg xmlns="http://www.w3.org/2000/svg" xmlns:xlink="http://www.w3.org/1999/xlink" version="1.1" x="0px" y="0px" viewBox="0 0 100 62.5" enable-background="new 0 0 100 62.5" xml:space="preserve"><path fill="#000000" d="M33.333,27.107v14.56H16.667v4.166c0,1.151-0.934,2.084-2.083,2.084S12.5,46.984,12.5,45.833v-4.166v-31.25  c0-0.732-0.15-1.429-0.384-2.084H31.25c1.149,0,2.083,0.937,2.083,2.084v3.731c0.991-0.163,2.004-0.277,3.064-0.277  c0.37,0,0.736,0.028,1.103,0.049v-3.503c0-3.446-2.804-6.25-6.25-6.25h-25C2.804,4.167,0,6.971,0,10.417v6.25h8.333v25v4.166  c0,3.446,2.803,6.25,6.25,6.25h25c3.446,0,6.25-2.804,6.25-6.25v-4.166H37.5v-15.19c-0.376-0.064-0.753-0.117-1.123-0.117  C35.177,26.359,34.141,26.709,33.333,27.107z M8.333,12.5H4.167v-2.083c0-1.147,0.934-2.084,2.083-2.084s2.083,0.937,2.083,2.084  V12.5z M41.667,45.833c0,1.151-0.934,2.084-2.083,2.084H20.478c0.229-0.651,0.356-1.352,0.356-2.084h12.5H37.5H41.667z"></path><path fill="#000000" d="M97.917,0H52.083C50.932,0,50,0.932,50,2.083v16.964c1.379,1.078,2.761,1.795,4.167,2.205V4.167h41.667  v35.416H54.167v-5.591c-1.414-0.171-2.803-0.479-4.167-0.924v12.765c0,1.151,0.932,2.084,2.083,2.084h18.75V50  c0,1.33,0,3.153-4.419,3.699c-2.795,0.342-8.081,2.185-8.081,6.718V62.5h35.393v-2.083c0-1.579-0.785-5.343-8.055-6.234  C81.25,53.638,81.25,51.363,81.25,50v-2.083h16.667c1.151,0,2.083-0.933,2.083-2.084V2.083C100,0.932,99.068,0,97.917,0z"></path><path fill="#000000" d="M75,17.676l-10.311,1.473l2.799,2.8c-3.658,2.767-11.694,7.093-20.247,0.244  c-9.397-7.516-18.188-3.182-21.525,0.154l2.946,2.946c0.287-0.285,7.119-6.934,15.975,0.154c4.144,3.316,8.331,4.562,12.219,4.562  c5.446,0,10.28-2.449,13.603-5.09l3.068,3.067L75,17.676z"></path></svg>