<svg xmlns="http://www.w3.org/2000/svg" xmlns:xlink="http://www.w3.org/1999/xlink" version="1.1" x="0px" y="0px" viewBox="0 0 91 91" style="enable-background:new 0 0 91 91;" xml:space="preserve"><g><path d="M44.5,45.8h4.4c2,0,3.8,1.3,3.8,2.8h3.4c0-3.4-3.2-6.1-7.2-6.1h-0.2v-3h-3.4v3h-0.8c-3.9,0-7.1,2.7-7.1,6.1v0.2   c0,1.9,1.3,3.6,4,5l0.2,0.1l9,1.8c1.4,0.8,2.1,1.5,2.1,1.9v0.2c0,1.5-1.7,2.8-3.8,2.8h-4.4c-2,0-3.8-1.3-3.8-2.8v-1.4h-3.4v1.4   c0,3.4,3.2,6.1,7.1,6.1h0.8v3.2h3.4v-3.2h0.2c3.9,0,7.1-2.7,7.1-6.1v-0.2c0-1.3-0.7-3.3-4.1-5l-0.2-0.1l-0.3-0.1l0,0l-0.3-0.1   l-8.4-1.7l0,0l0,0c-1.4-0.8-2-1.5-2-1.9v-0.2C40.8,47.1,42.5,45.8,44.5,45.8z"></path><path d="M21.1,50l-3-1.6c-1.5,2.8-2.7,5.6-3.5,8.4l3.2,1C18.6,55.1,19.7,52.5,21.1,50z"></path><path d="M29,39.2l-2.5-2.3c-2.1,2.3-4,4.7-5.6,7l2.8,1.9C25.2,43.6,27,41.4,29,39.2z"></path><path d="M36.8,27.4c-2.4,1.8-4.7,3.8-6.8,5.8l2.3,2.4c2-2,4.2-3.8,6.5-5.6L36.8,27.4z"></path><path d="M16.5,65.8c0-0.9,0.1-1.8,0.2-2.7c0-0.3,0.1-0.5,0.1-0.8l-3.3-0.5c0,0.3-0.1,0.6-0.1,0.9c-0.1,1.1-0.2,2.1-0.2,3.1   c0,2,0.3,3.8,0.8,5.4l3.2-1C16.7,68.9,16.5,67.4,16.5,65.8z"></path><path d="M74.8,55.1l3.2-1.2c-1-2.7-2.3-5.4-3.9-8.1l-2.9,1.7C72.6,50,73.8,52.5,74.8,55.1z"></path><path d="M65.5,34.5L63,36.8c2,2.1,3.8,4.4,5.4,6.6l2.7-2C69.5,39.1,67.6,36.7,65.5,34.5z"></path><path d="M19.2,74l-2.6,2.2c1.9,2.3,4.6,4.1,8,5.2l1.1-3.2C22.9,77.3,20.7,75.9,19.2,74z"></path><path d="M80.1,62.7c-0.2-1.3-0.4-2.5-0.7-3.8l-3.3,0.8c0.3,1.2,0.5,2.3,0.6,3.5c0.1,0.9,0.2,1.8,0.2,2.7c0,0.7,0,1.3-0.1,1.9   l3.4,0.4c0.1-0.8,0.1-1.5,0.1-2.3C80.3,64.8,80.2,63.8,80.1,62.7z"></path><path d="M70.2,77.2l1.5,3c3.1-1.6,5.5-3.9,6.9-6.7l-3-1.5C74.5,74.1,72.7,75.9,70.2,77.2z"></path><path d="M61.7,79.2h-4.2v3.4h4.2c0.1,0,2.2,0,4.9-0.6l-0.8-3.3C63.6,79.2,61.8,79.2,61.7,79.2z"></path><path d="M29.7,19.6l8.8,8.2c0.3,0.3,0.7,0.5,1.2,0.5h13.8c0.7,0.4,3,2,6.2,5l2.3-2.5c-2-1.9-3.9-3.5-5.3-4.5l7.2-6.7   c0.2-0.2,0.3-0.4,0.4-0.6c0.5-1.1,0.4-2.4,0-3.5s-1.4-2-2.5-2.4L58,11.6c0,0,0,0,0,0c0-2.8-2.2-5-5-5H40.4c-2.8,0-5,2.2-5,5   c0,0,0,0,0,0l-3.7,1.5c-2.3,0.9-3.5,3.6-2.5,5.9C29.4,19.2,29.5,19.4,29.7,19.6z M33.1,16.2l3.8-1.5l2.8,5.2   c0.3,0.6,0.9,0.9,1.5,0.9c0.3,0,0.5-0.1,0.8-0.2c0.8-0.4,1.1-1.5,0.7-2.3l-3.5-6.5c-0.1-0.1-0.2-0.2-0.2-0.3l-0.1-0.1   c0.1-0.8,0.8-1.4,1.6-1.4H53c0.8,0,1.5,0.6,1.6,1.4l-0.2,0.6L51,18.2c-0.4,0.8-0.1,1.8,0.7,2.3c0.3,0.1,0.5,0.2,0.8,0.2   c0.6,0,1.2-0.3,1.5-0.9l2.8-5.1l3.7,1.5c0.3,0.1,0.5,0.3,0.7,0.6c0.1,0.2,0.1,0.4,0.1,0.6l-7.9,7.4H40.3l-7.9-7.4   C32.2,16.9,32.5,16.4,33.1,16.2z"></path><path d="M61.1,75.5c0.8-0.4,1.1-1.5,0.7-2.3s-1.5-1.1-2.3-0.7c-9,4.8-24.7,6.7-29.2,6.5c-0.9-0.1-1.7,0.7-1.7,1.6   c0,0.8,0.5,1.5,1.3,1.7c0,0,1.8,0.2,1.9,0.2l7.1-0.8c3,0,13.8,0.8,13.8,0.8v-3.4h-1C55,78.3,58.3,77,61.1,75.5z"></path></g></svg>