<svg xmlns="http://www.w3.org/2000/svg" xmlns:xlink="http://www.w3.org/1999/xlink" viewBox="0 0 100 100" version="1.1" x="0px" y="0px"><title>Artboard 1 Copy 180</title><desc>Created with Sketch.</desc><g stroke="none" stroke-width="1" fill="none" fill-rule="evenodd"><g fill="#000000"><path d="M94,60.006 C94,61.106 93.103,62 92,62 L90,62 L90,60.01 L90,47.99 L90,46 L92,46 C93.103,46 94,46.895 94,47.994 L94,60.006 Z M76.009,70 L57.716,70 C56.156,69.184 53.175,67.886 50,67.886 C46.824,67.886 43.845,69.184 42.284,70 L23.991,70 C18.482,70 14,65.519 14,60.01 L14,47.99 C14,42.482 18.487,38 24.003,38 L38,38 L62,38 L75.996,38 C81.512,38 86,42.482 86,47.99 L86,60.01 C86,65.519 81.518,70 76.009,70 L76.009,70 Z M10,62 L8,62 C6.897,62 6,61.106 6,60.006 L6,47.994 C6,46.895 6.897,46 8,46 L10,46 L10,47.99 L10,60.01 L10,62 Z M42,32 C42,30.897 42.895,30 43.994,30 L56.006,30 C57.105,30 58,30.897 58,32 L58,34 L42,34 L42,32 Z M92,42 L88.635,42 C86.386,37.277 81.58,34 75.996,34 L62,34 L62,32 C62,28.687 59.316,26 56.006,26 L43.994,26 C40.684,26 38,28.694 38,32 L38,34 L24.003,34 C18.424,34 13.614,37.275 11.364,42 L8,42 C4.693,42 2,44.684 2,47.994 L2,60.006 C2,63.317 4.687,66 8,66 L11.364,66 C13.61,70.723 18.413,74 23.991,74 L43.333,74 C43.333,74 46.667,71.886 50,71.886 C53.333,71.886 56.667,74 56.667,74 L76.009,74 C81.585,74 86.39,70.725 88.637,66 L92,66 C95.313,66 98,63.317 98,60.006 L98,47.994 C98,44.684 95.307,42 92,42 L92,42 Z"></path></g></g></svg>