<svg xmlns="http://www.w3.org/2000/svg" xmlns:xlink="http://www.w3.org/1999/xlink" version="1.1" x="0px" y="0px" viewBox="0 0 100 100" enable-background="new 0 0 100 100" xml:space="preserve"><g><path d="M94,6H6v18h5v66c0,2.206,1.794,4,4,4h70c2.206,0,4-1.794,4-4V24h5V6z M86,90c0,0.552-0.448,1-1,1H15c-0.551,0-1-0.448-1-1   V24h72V90z M91,21H9V9h82V21z"></path><path d="M42.279,69.235c-1.497,0-2.902-0.36-4.142-0.679c-0.96-0.246-1.79-0.458-2.524-0.458c-1.576,0-2.554,1.01-2.554,2.637   c0,3.211,3.894,10.765,9.221,10.765c1.559,0,4.297-0.001,6.387-0.828C48.913,81.161,49.415,81.5,50,81.5s1.087-0.339,1.334-0.828   c2.09,0.827,4.828,0.828,6.387,0.828c5.327,0,9.221-7.554,9.221-10.765c0-1.627-0.979-2.637-2.555-2.637   c-0.734,0-1.564,0.212-2.525,0.459c-1.239,0.317-2.645,0.678-4.141,0.678c-2.364,0-4.562,0.962-6.221,2.338V66.5h1.588   c0.828,0,1.5-0.672,1.5-1.5s-0.672-1.5-1.5-1.5H51.5v-2h1.588c0.828,0,1.5-0.672,1.5-1.5s-0.672-1.5-1.5-1.5H51.5v-6.054   c2.057,0.854,4.913,1.26,7.765,1.26c0.828,0,1.5-0.672,1.5-1.5s-0.672-1.5-1.5-1.5c-4.692,0-7.342-1.165-7.765-1.703v-1.474h13.941   c0.828,0,1.5-0.671,1.5-1.5s-0.672-1.5-1.5-1.5H51.5v-4.864c4.078,1.526,11.18,1.688,13.941,1.688c0.828,0,1.5-0.671,1.5-1.5   s-0.672-1.5-1.5-1.5c-8.062,0-12.914-1.215-13.941-1.928v-4.048c2.496,1.728,6.357,2.799,10.853,2.799c0.828,0,1.5-0.671,1.5-1.5   s-0.672-1.5-1.5-1.5c-6.211,0-10.853-2.469-10.853-4.676c0-0.829-0.671-1.5-1.5-1.5s-1.5,0.671-1.5,1.5   c0,2.208-4.642,4.676-10.853,4.676c-0.829,0-1.5,0.671-1.5,1.5s0.671,1.5,1.5,1.5c4.495,0,8.356-1.071,10.853-2.799v4.048   c-1.028,0.713-5.879,1.928-13.941,1.928c-0.829,0-1.5,0.671-1.5,1.5s0.671,1.5,1.5,1.5c2.762,0,9.864-0.162,13.941-1.688v4.864   H34.559c-0.829,0-1.5,0.671-1.5,1.5s0.671,1.5,1.5,1.5H48.5v1.474c-0.423,0.539-3.073,1.703-7.765,1.703   c-0.829,0-1.5,0.672-1.5,1.5s0.671,1.5,1.5,1.5c2.852,0,5.708-0.406,7.765-1.26V58.5h-1.589c-0.829,0-1.5,0.672-1.5,1.5   s0.671,1.5,1.5,1.5H48.5v2h-1.589c-0.829,0-1.5,0.672-1.5,1.5s0.671,1.5,1.5,1.5H48.5v5.073   C46.84,70.197,44.644,69.235,42.279,69.235z M42.279,78.5c-2.934,0-5.839-5.026-6.186-7.345c0.361,0.067,0.821,0.186,1.299,0.308   c1.342,0.345,3.012,0.772,4.887,0.772c3.594,0,6.221,3.076,6.221,4.677C48.5,77.951,46.349,78.5,42.279,78.5z M57.721,72.235   c1.874,0,3.544-0.428,4.886-0.772c0.472-0.121,0.928-0.237,1.3-0.305c-0.35,2.32-3.253,7.342-6.186,7.342   c-4.069,0-6.221-0.549-6.221-1.588C51.5,75.312,54.127,72.235,57.721,72.235z"></path><path d="M20,76.5h7.5c0.829,0,1.5-0.672,1.5-1.5s-0.671-1.5-1.5-1.5H20c-0.829,0-1.5,0.672-1.5,1.5S19.171,76.5,20,76.5z"></path><path d="M20,81.5h10c0.829,0,1.5-0.672,1.5-1.5s-0.671-1.5-1.5-1.5H20c-0.829,0-1.5,0.672-1.5,1.5S19.171,81.5,20,81.5z"></path><path d="M20,86.5h5c0.829,0,1.5-0.672,1.5-1.5s-0.671-1.5-1.5-1.5h-5c-0.829,0-1.5,0.672-1.5,1.5S19.171,86.5,20,86.5z"></path><path d="M15,19c2.206,0,4-1.794,4-4s-1.794-4-4-4s-4,1.794-4,4S12.794,19,15,19z M15,14c0.551,0,1,0.449,1,1s-0.449,1-1,1   s-1-0.449-1-1S14.449,14,15,14z"></path><path d="M25,19c2.206,0,4-1.794,4-4s-1.794-4-4-4s-4,1.794-4,4S22.794,19,25,19z M25,14c0.551,0,1,0.449,1,1s-0.449,1-1,1   s-1-0.449-1-1S24.449,14,25,14z"></path><path d="M70,16.5h15c0.828,0,1.5-0.671,1.5-1.5s-0.672-1.5-1.5-1.5H70c-0.828,0-1.5,0.671-1.5,1.5S69.172,16.5,70,16.5z"></path></g></svg>